HIERARCHY
ROOT Hips
{
	OFFSET 0.00000 0.00000 0.00000
	CHANNELS 6 Xposition Yposition Zposition Zrotation Yrotation Xrotation 
	JOINT LHipJoint
	{
		OFFSET 0 0 0
		CHANNELS 3 Zrotation Yrotation Xrotation
		JOINT LeftUpLeg
		{
			OFFSET 1.62964 -1.40469 0.78906
			CHANNELS 3 Zrotation Yrotation Xrotation
			JOINT LeftLeg
			{
				OFFSET 2.29640 -6.30932 0.00000
				CHANNELS 3 Zrotation Yrotation Xrotation
				JOINT LeftFoot
				{
					OFFSET 2.29451 -6.30412 0.00000
					CHANNELS 3 Zrotation Yrotation Xrotation
					JOINT LeftToeBase
					{
						OFFSET 0.03611 -0.09921 1.56387
						CHANNELS 3 Zrotation Yrotation Xrotation
						End Site
						{
							OFFSET 0.00000 -0.00000 0.80291
						}
					}
				}
			}
		}
	}
	JOINT RHipJoint
	{
		OFFSET 0 0 0
		CHANNELS 3 Zrotation Yrotation Xrotation
		JOINT RightUpLeg
		{
			OFFSET -1.73712 -1.40469 0.78906
			CHANNELS 3 Zrotation Yrotation Xrotation
			JOINT RightLeg
			{
				OFFSET -2.28137 -6.26801 0.00000
				CHANNELS 3 Zrotation Yrotation Xrotation
				JOINT RightFoot
				{
					OFFSET -2.28681 -6.28298 0.00000
					CHANNELS 3 Zrotation Yrotation Xrotation
					JOINT RightToeBase
					{
						OFFSET -0.15927 -0.43759 1.61103
						CHANNELS 3 Zrotation Yrotation Xrotation
						End Site
						{
							OFFSET -0.00000 -0.00000 0.84630
						}
					}
				}
			}
		}
	}
	JOINT LowerBack
	{
		OFFSET 0 0 0
		CHANNELS 3 Zrotation Yrotation Xrotation
		JOINT Spine
		{
			OFFSET -0.04227 2.04338 -0.00225
			CHANNELS 3 Zrotation Yrotation Xrotation
			JOINT Spine1
			{
				OFFSET -0.02148 2.04482 -0.04273
				CHANNELS 3 Zrotation Yrotation Xrotation
				JOINT Neck
				{
					OFFSET 0 0 0
					CHANNELS 3 Zrotation Yrotation Xrotation
					JOINT Neck1
					{
						OFFSET 0.09180 1.44629 0.19359
						CHANNELS 3 Zrotation Yrotation Xrotation
						JOINT Head
						{
							OFFSET 0.00887 1.40645 0.14750
							CHANNELS 3 Zrotation Yrotation Xrotation
							End Site
							{
								OFFSET -0.00669 1.50671 0.03707
							}
						}
					}
				}
				JOINT LeftShoulder
				{
					OFFSET 0 0 0
					CHANNELS 3 Zrotation Yrotation Xrotation
					JOINT LeftArm
					{
						OFFSET 2.17674 1.86763 -0.06520
						CHANNELS 3 Zrotation Yrotation Xrotation
						JOINT LeftForeArm
						{
							OFFSET 4.65776 -0.00000 0.00000
							CHANNELS 3 Zrotation Yrotation Xrotation
							JOINT LeftHand
							{
								OFFSET 3.55539 -0.00000 0.00000
								CHANNELS 3 Zrotation Yrotation Xrotation
								JOINT LeftFingerBase
								{
									OFFSET 0 0 0
									CHANNELS 3 Zrotation Yrotation Xrotation
									JOINT LeftHandIndex1
									{
										OFFSET 0.70726 -0.00000 0.00000
										CHANNELS 3 Zrotation Yrotation Xrotation
										End Site
										{
											OFFSET 0.57022 -0.00000 0.00000
										}
									}
								}
								JOINT LThumb
								{
									OFFSET 0 0 0
									CHANNELS 3 Zrotation Yrotation Xrotation
									End Site
									{
										OFFSET 0.57892 -0.00000 0.57892
									}
								}
							}
						}
					}
				}
				JOINT RightShoulder
				{
					OFFSET 0 0 0
					CHANNELS 3 Zrotation Yrotation Xrotation
					JOINT RightArm
					{
						OFFSET -2.80694 1.55459 -0.32496
						CHANNELS 3 Zrotation Yrotation Xrotation
						JOINT RightForeArm
						{
							OFFSET -4.71925 -0.00000 -0.00000
							CHANNELS 3 Zrotation Yrotation Xrotation
							JOINT RightHand
							{
								OFFSET -3.56990 -0.00000 0.00000
								CHANNELS 3 Zrotation Yrotation Xrotation
								JOINT RightFingerBase
								{
									OFFSET 0 0 0
									CHANNELS 3 Zrotation Yrotation Xrotation
									JOINT RightHandIndex1
									{
										OFFSET -0.50776 -0.00000 0.00000
										CHANNELS 3 Zrotation Yrotation Xrotation
										End Site
										{
											OFFSET -0.40937 -0.00000 0.00000
										}
									}
								}
								JOINT RThumb
								{
									OFFSET 0 0 0
									CHANNELS 3 Zrotation Yrotation Xrotation
									End Site
									{
										OFFSET -0.41562 -0.00000 0.41562
									}
								}
							}
						}
					}
				}
			}
		}
	}
}
MOTION
Frames: 9
Frame Time: .0083333
-0.3059 17.2380 17.4555 183.7910 -14.5374 -165.1330 0.0000 0.0000 0.0000 -15.2162 -20.8087 -1.9701 1.8995 8.6536 24.7176 1.4071 -13.1281 -21.8024 1.7293 -8.2779 -23.5614 0.0000 0.0000 0.0000 -5.2033 15.2900 -39.0668 -0.3357 -3.7234 10.2998 0.2131 -16.4580 -21.1794 -1.2372 7.0535 -19.8739 -11.4992 -5.7261 -25.5032 0.3798 -4.4230 0.7655 4.9769 -2.9795 15.3880 -2.7040 -8.3217 5.1837 6.0862 -15.9990 22.0672 1.5472 -8.6632 6.6494 0.0000 -0.0000 0.0000 -71.7783 8.7532 28.3526 17.7514 -27.8376 -4.4325 -0.0000 0.0000 -2.3880 20.8884 -11.1763 -4.2305 -7.1250 0.0000 -0.0000 -4.3712 18.0597 2.8090 0.0000 -0.0000 0.0000 92.9817 -18.9566 0.5545 -16.3056 25.9333 -3.7786 0.0000 -0.0000 -0.3119 -12.7410 -52.1844 10.1277 7.1250 -0.0000 -0.0000 63.3732 -75.7519 -49.6143
-0.2700 17.2146 17.3670 183.9360 -14.7943 -165.1250 0.0000 0.0000 0.0000 -14.8729 -20.7608 -1.7195 1.9020 8.6590 24.7342 1.4336 -12.9692 -21.9552 1.9795 -8.8233 -25.2440 0.0000 0.0000 0.0000 -5.2108 15.2053 -39.0154 -0.3239 -3.6583 10.1174 0.2619 -16.6217 -20.9025 -1.1865 6.9125 -19.4565 -11.3731 -5.7813 -25.6896 0.3344 -4.5085 0.7564 4.8131 -3.0091 15.4713 -3.2481 -7.9721 4.7710 6.4623 -15.8827 23.0560 1.6885 -8.6418 7.1083 -0.0000 -0.0000 0.0000 -71.4199 8.8640 28.8524 18.1756 -28.3814 -4.6324 -0.0000 0.0000 -2.5573 21.5236 -9.3872 -3.6806 -7.1250 0.0000 -0.0000 -3.8789 19.9145 2.3310 -0.0000 -0.0000 0.0000 93.1258 -19.2102 0.7857 -16.3569 26.0022 -3.8011 0.0000 -0.0000 -0.4697 -13.2042 -51.0342 10.3386 7.1250 -0.0000 -0.0000 58.8874 -75.4898 -45.3727
-0.2279 17.1889 17.2739 184.2240 -15.0086 -165.2850 0.0000 0.0000 0.0000 -14.3455 -20.5027 -1.3682 1.8918 8.6370 24.6661 1.4798 -12.5871 -22.2047 2.4863 -9.8130 -28.3733 0.0000 0.0000 0.0000 -4.8296 15.0893 -38.9386 -0.3323 -3.7048 10.2475 0.3308 -16.7923 -20.4009 -1.4135 7.5195 -21.2637 -11.1721 -5.7707 -25.7626 0.3149 -4.5402 0.7811 4.6672 -3.0086 15.5279 -2.6311 -8.4821 5.5115 6.1496 -16.4064 22.3399 1.5412 -8.8908 6.7103 -0.0000 -0.0000 0.0000 -71.0377 8.8509 28.9159 18.1531 -28.3528 -4.6217 -0.0000 0.0000 -2.1714 21.9194 -10.5632 -4.2188 -7.1250 0.0000 -0.0000 -3.6271 18.6271 2.2831 -0.0000 -0.0000 0.0000 93.3571 -19.5721 1.0128 -16.5030 26.1979 -3.8654 0.0000 -0.0000 -0.8622 -13.7911 -55.0582 11.3767 7.1250 -0.0000 -0.0000 74.6674 -76.8647 -61.2949
-0.1773 17.1630 17.1777 184.7960 -15.3313 -165.7180 0.0000 0.0000 0.0000 -13.4373 -20.1621 -0.8867 1.8823 8.6164 24.6025 1.4989 -12.6400 -22.3453 2.6250 -10.0617 -29.1766 0.0000 0.0000 0.0000 -4.1946 15.3390 -38.4837 -0.3347 -3.7177 10.2838 0.4299 -17.2789 -20.0739 -1.6116 8.0053 -22.7303 -10.8385 -5.7224 -25.6169 0.3965 -4.5889 0.8609 4.5701 -3.0064 15.5492 -2.2162 -8.7736 6.0059 5.9813 -16.6892 21.8790 1.4636 -9.0236 6.4499 -0.0000 -0.0000 0.0000 -70.6160 8.8409 29.2569 18.2718 -28.5037 -4.6782 -0.0000 0.0000 -2.1203 22.2662 -11.0421 -4.4840 -7.1250 0.0000 -0.0000 -3.3981 18.0849 2.1792 -0.0000 -0.0000 0.0000 93.6288 -19.9121 0.9373 -16.6443 26.3865 -3.9280 0.0000 -0.0000 -1.1067 -12.4834 -54.7782 10.2517 7.1250 -0.0000 -0.0000 73.7113 -76.3272 -59.7908
-0.1294 17.1393 17.0842 185.1050 -15.6915 -165.9920 0.0000 0.0000 0.0000 -12.8650 -20.0998 -0.4958 1.9011 8.6570 24.7280 1.4966 -13.1077 -22.4133 2.3336 -9.5289 -27.4642 0.0000 0.0000 0.0000 -3.8637 15.3179 -38.1181 -0.3258 -3.6688 10.1467 0.4818 -17.5048 -19.8533 -1.6812 8.1678 -23.2249 -10.7346 -5.7564 -25.4390 0.4500 -4.6893 0.8633 4.5458 -3.0416 15.4811 -1.9977 -8.8498 6.3446 5.8828 -16.7020 21.5709 1.4368 -9.0310 6.2707 -0.0000 -0.0000 0.0000 -70.3055 8.9246 29.4903 18.4627 -28.7455 -4.7697 -0.0000 0.0000 -2.2007 22.0550 -11.0385 -4.4357 -7.1250 0.0000 -0.0000 -3.5466 18.1071 2.2730 -0.0000 -0.0000 0.0000 93.7522 -20.3297 0.9795 -16.7803 26.5673 -3.9886 0.0000 -0.0000 -1.1606 -11.1675 -53.7651 9.0476 7.1250 -0.0000 -0.0000 70.0607 -75.6187 -55.5751
-0.0889 17.1169 16.9949 184.9580 -15.9395 -165.9170 0.0000 0.0000 0.0000 -12.8372 -20.1656 -0.2896 1.9239 8.7057 24.8789 1.4826 -13.4920 -22.3927 2.1184 -9.1084 -26.1351 0.0000 0.0000 0.0000 -3.9570 14.8620 -38.1723 -0.3247 -3.6623 10.1286 0.4811 -17.2918 -19.4689 -1.8076 8.4532 -24.0994 -10.9535 -5.8641 -25.4851 0.4196 -4.7592 0.8594 4.5963 -3.0900 15.5218 -2.0646 -8.7180 6.0428 5.7835 -16.5594 21.9288 1.3902 -8.9614 6.4250 -0.0000 0.0000 0.0000 -70.1354 8.9256 29.5370 18.6556 -28.9886 -4.8628 -0.0000 0.0000 -2.0864 21.8717 -11.0516 -4.4003 -7.1250 0.0000 -0.0000 -3.6760 18.1089 2.3562 -0.0000 0.0000 0.0000 93.7250 -20.6279 1.2432 -16.8877 26.7095 -4.0367 0.0000 -0.0000 -1.4716 -11.1043 -53.4606 8.9614 7.1250 -0.0000 -0.0000 68.9242 -75.5169 -54.4099
-0.0475 17.0945 16.9071 184.8590 -16.0916 -165.8680 0.0000 0.0000 0.0000 -12.7080 -20.0165 -0.1091 1.9314 8.7216 24.9283 1.4543 -13.6962 -22.2425 2.1421 -9.1559 -26.2843 0.0000 0.0000 0.0000 -4.0418 14.6807 -38.1999 -0.3260 -3.6697 10.1491 0.4939 -17.2030 -19.1404 -1.9180 8.6931 -24.8398 -11.0942 -5.9237 -25.5655 0.3864 -4.7736 0.9324 4.6205 -3.1111 15.6565 -2.3272 -8.6018 5.7057 5.9834 -16.5173 22.2829 1.4550 -8.9375 6.6300 -0.0000 -0.0000 0.0000 -69.9627 8.8709 29.5242 18.9464 -29.3520 -5.0045 -0.0000 0.0000 -2.0760 21.7609 -10.9015 -4.3172 -7.1250 0.0000 -0.0000 -3.7493 18.2788 2.3893 -0.0000 -0.0000 0.0000 93.6593 -20.6333 1.5192 -16.8327 26.6367 -4.0121 0.0000 -0.0000 -1.8721 -12.0161 -52.8420 9.6277 7.1250 -0.0000 -0.0000 66.2013 -75.6877 -52.1003
0.0020 17.0733 16.8173 185.0160 -16.2519 -166.0090 0.0000 0.0000 0.0000 -12.2212 -19.7487 0.1188 1.9476 8.7560 25.0351 1.4247 -14.0458 -22.1174 2.0605 -8.9910 -25.7672 0.0000 0.0000 0.0000 -3.9382 14.9494 -37.9458 -0.3224 -3.6496 10.0929 0.5542 -17.4748 -18.8732 -2.0369 8.9426 -25.6159 -11.1086 -5.9344 -25.4850 0.4158 -4.7862 1.0013 4.6595 -3.1205 15.7060 -2.3836 -8.7508 6.1056 6.1665 -16.7364 21.9981 1.5439 -9.0541 6.5041 -0.0000 -0.0000 0.0000 -69.7370 8.8842 29.6141 19.2853 -29.7717 -5.1718 -0.0000 0.0000 -2.4366 21.6118 -10.2578 -4.0354 -7.1250 0.0000 -0.0000 -3.8363 18.9783 2.3855 -0.0000 -0.0000 0.0000 93.6163 -20.7335 1.7854 -16.8171 26.6160 -4.0050 0.0000 -0.0000 -2.1064 -13.6972 -52.1075 10.8871 7.1250 -0.0000 -0.0000 62.5951 -76.0953 -49.2797
0.0497 17.0534 16.7257 185.1920 -16.4715 -166.0970 0.0000 0.0000 0.0000 -11.7269 -19.6284 0.3527 1.9631 8.7888 25.1367 1.3889 -14.5001 -21.9806 1.7791 -8.3901 -23.9052 0.0000 0.0000 0.0000 -3.7376 15.0063 -37.6942 -0.3113 -3.5867 9.9167 0.5874 -17.5777 -18.6318 -2.0936 9.0584 -25.9782 -11.0577 -5.9156 -25.4105 0.4321 -4.7844 1.0148 4.6565 -3.1152 15.6837 -2.4380 -8.7745 6.5724 6.3386 -16.7944 21.7732 1.6411 -9.1005 6.3775 -0.0000 -0.0000 0.0000 -69.4458 8.8906 29.9259 19.5243 -30.0650 -5.2910 -0.0000 0.0000 -2.7584 21.6402 -9.8451 -3.8808 -7.1250 0.0000 -0.0000 -3.8059 19.4167 2.3293 -0.0000 -0.0000 0.0000 93.7118 -21.0572 2.0113 -16.9664 26.8135 -4.0722 0.0000 -0.0000 -2.4110 -13.2097 -56.0392 11.0169 7.1250 -0.0000 -0.0000 78.9277 -76.7492 -65.2846
